if (_typeface_js && _typeface_js.loadFace) _typeface_js.loadFace({"glyphs":{"S":{"x_min":86.234375,"x_max":670,"ha":767,"o":"m 117 -131 b 147 12 127 -80 140 -13 b 335 -22 185 -8 269 -22 b 670 280 520 -22 670 87 b 442 605 670 455 555 533 b 246 810 339 672 246 720 b 412 949 246 873 295 949 b 593 824 508 949 578 874 b 599 719 596 799 599 766 l 630 705 b 663 1085 630 819 644 948 l 631 1081 b 607 969 623 1044 616 1002 b 423 994 574 977 503 994 b 143 749 222 994 143 858 b 382 426 143 592 249 515 b 557 200 471 368 557 312 b 363 25 557 97 471 25 b 152 176 269 25 189 87 b 143 298 148 201 142 280 l 112 306 b 108 87 116 273 108 123 b 86 -140 108 33 88 -120 l 117 -131 "},"/":{"x_min":4.578125,"x_max":662,"ha":681,"o":"m 116 0 b 380 511 162 100 308 383 b 662 973 445 627 619 925 l 555 972 b 338 575 553 947 384 658 b 4 -8 280 472 49 51 l 116 0 "},"K":{"x_min":65.328125,"x_max":1112.03125,"ha":1111,"o":"m 221 488 b 215 42 221 290 219 103 b 70 23 182 34 103 25 l 65 -6 b 298 0 104 -3 234 0 b 541 -6 371 0 515 -3 l 539 23 b 383 49 518 25 419 34 b 377 416 378 101 377 295 l 377 449 b 462 522 394 466 436 502 b 1065 -40 500 480 959 0 l 1112 -25 b 596 630 1041 41 649 544 b 965 932 653 683 906 900 b 1054 948 1000 941 1034 946 l 1063 978 b 914 972 1016 975 954 972 b 707 978 861 972 764 975 l 713 948 b 813 929 743 944 782 937 b 377 512 774 861 465 591 l 377 555 b 383 929 377 669 378 884 b 522 948 415 934 506 946 l 528 978 b 304 972 502 975 355 972 b 65 978 249 972 92 975 l 69 948 b 215 929 102 946 182 934 b 221 568 219 891 221 698 l 221 488 "},"7":{"x_min":66.6875,"x_max":732.28125,"ha":744,"o":"m 496 23 b 360 44 475 26 390 40 b 499 465 366 95 421 276 b 732 973 575 651 700 893 b 436 972 677 972 568 972 b 138 983 238 972 166 975 b 134 1068 136 1008 134 1041 l 103 1075 b 66 681 98 937 88 843 l 99 693 b 132 825 107 730 118 788 b 602 848 171 852 409 848 b 419 494 594 830 491 631 b 208 44 345 354 232 113 b 84 23 189 37 121 27 l 76 -5 b 279 0 142 -2 223 0 b 502 -5 355 0 451 -2 l 496 23 "},"d":{"x_min":65.328125,"x_max":1211.390625,"ha":1306,"o":"m 221 474 b 212 42 221 313 219 65 b 70 22 179 32 96 24 l 65 -6 b 462 -3 98 -4 386 -3 b 1211 577 985 -3 1211 283 b 988 913 1211 703 1147 835 b 604 977 898 957 763 977 b 289 971 499 977 337 971 b 65 977 232 971 85 974 l 68 947 b 212 928 100 945 176 935 b 221 583 219 900 221 646 l 221 474 m 377 515 b 386 917 377 577 382 896 b 506 925 415 922 475 925 b 895 822 632 925 796 897 b 1043 502 1008 736 1043 620 b 534 50 1043 206 794 50 b 386 75 499 50 446 52 b 377 461 381 125 377 386 l 377 515 "},",":{"x_min":136.109375,"x_max":299.203125,"ha":444,"o":"m 245 -243 b 296 137 299 -105 303 8 l 136 122 l 138 -22 l 208 -19 b 204 -248 235 -68 231 -143 l 245 -243 "},"Y":{"x_min":-47.640625,"x_max":975.921875,"ha":908,"o":"m 389 305 b 382 42 389 216 387 63 b 262 23 351 34 288 25 l 255 -6 b 442 0 294 -3 393 0 b 686 -6 534 0 657 -3 l 683 23 b 551 42 657 27 567 38 b 544 301 545 77 544 263 l 544 353 b 549 452 544 387 545 429 b 879 929 568 513 849 919 b 971 948 907 937 951 944 l 975 978 b 811 972 944 975 873 972 b 639 978 736 972 660 975 l 643 948 b 749 929 661 946 721 936 b 514 508 745 872 536 548 b 253 929 472 581 333 784 b 370 948 284 936 345 943 l 377 978 b 189 972 357 975 266 972 b -47 978 65 972 -24 975 l -42 948 b 53 929 -14 943 35 937 b 385 441 115 869 374 477 b 389 349 389 405 389 369 l 389 305 "},"E":{"x_min":65.359375,"x_max":774.5,"ha":885,"o":"m 221 476 b 212 43 221 323 217 68 b 72 23 175 33 93 25 l 65 -5 b 272 0 118 -2 225 0 b 699 -12 358 0 660 -5 b 701 -97 701 -34 701 -59 l 729 -102 b 774 218 735 -33 764 177 l 743 209 b 713 87 735 179 728 136 b 386 40 650 51 522 40 b 377 468 382 80 377 383 l 377 495 b 642 465 494 495 600 487 b 639 372 642 437 641 401 l 665 361 b 701 620 672 405 696 595 l 672 618 b 658 558 669 598 665 579 b 377 536 626 545 494 536 l 377 563 b 386 933 377 645 382 913 b 692 875 458 933 668 915 b 692 775 694 847 692 784 l 722 765 b 750 1052 725 808 743 1023 l 718 1047 b 707 981 715 1022 711 998 b 307 972 671 972 351 972 b 187 973 277 972 232 973 b 65 977 142 975 98 976 l 70 948 b 212 929 103 944 186 934 b 221 540 217 886 221 665 l 221 476 "},"y":{"x_min":-47.640625,"x_max":975.921875,"ha":908,"o":"m 389 305 b 382 42 389 216 387 63 b 262 23 351 34 288 25 l 255 -6 b 442 0 294 -3 393 0 b 686 -6 534 0 657 -3 l 683 23 b 551 42 657 27 567 38 b 544 301 545 77 544 263 l 544 353 b 549 452 544 387 545 429 b 879 929 568 513 849 919 b 971 948 907 937 951 944 l 975 978 b 811 972 944 975 873 972 b 639 978 736 972 660 975 l 643 948 b 749 929 661 946 721 936 b 514 508 745 872 536 548 b 253 929 472 581 333 784 b 370 948 284 936 345 943 l 377 978 b 189 972 357 975 266 972 b -47 978 65 972 -24 975 l -42 948 b 53 929 -14 943 35 937 b 385 441 115 869 374 477 b 389 349 389 405 389 369 l 389 305 "},"\"":{"x_min":34.03125,"x_max":352.53125,"ha":394,"o":"m 121 658 b 167 994 134 769 152 891 l 34 1009 b 80 650 53 901 68 783 l 121 658 m 306 658 b 352 994 319 769 337 891 l 217 1009 b 264 650 236 901 251 783 l 306 658 "},"‹":{"x_min":108,"x_max":383,"ha":500,"o":"m 383 386 b 221 515 358 401 268 469 b 377 671 261 557 338 634 l 363 721 b 108 505 340 696 154 544 b 362 286 127 490 342 308 l 383 386 "},"˙":{"x_min":527,"x_max":722,"ha":1274,"o":"m 527 1146 l 641 1067 l 722 1172 l 606 1255 l 527 1146 "},"„":{"x_min":70.90625,"x_max":407,"ha":486,"o":"m 107 -170 b 242 141 147 -70 200 49 l 125 186 b 70 -168 123 72 109 -45 l 107 -170 m 272 -170 b 407 141 311 -70 364 49 l 290 186 b 235 -168 288 72 273 -45 l 272 -170 "},"g":{"x_min":75.71875,"x_max":1183.671875,"ha":1257,"o":"m 1053 231 b 1058 385 1053 270 1054 361 b 1176 400 1088 392 1164 399 l 1183 430 b 969 425 1167 427 1035 425 b 746 430 922 425 817 427 l 754 400 b 892 385 780 395 865 388 b 897 274 896 360 897 317 l 897 200 b 893 63 897 131 896 84 b 720 27 836 32 756 27 b 237 544 426 27 237 317 b 632 946 237 766 395 946 b 986 811 854 946 950 854 b 1001 683 991 779 998 730 l 1032 666 b 1051 1096 1028 795 1043 1041 l 1020 1089 b 995 960 1016 1060 1001 982 b 690 994 950 976 808 994 b 290 882 552 994 414 968 b 75 462 171 798 75 658 b 346 43 75 288 175 131 b 707 -22 460 -14 618 -22 b 1055 23 799 -22 976 0 b 1053 186 1053 61 1053 135 l 1053 231 "},"–":{"x_min":0,"x_max":680.5625,"ha":694,"o":"m 10 555 l 0 452 b 420 472 117 466 281 472 b 669 466 549 472 653 468 l 680 555 l 10 555 "},"ƒ":{"x_min":17.5,"x_max":651.78125,"ha":617,"o":"m 197 -221 b 282 421 220 -94 263 308 l 492 421 l 508 480 b 287 462 470 473 310 462 b 342 847 299 580 306 738 b 465 951 365 916 412 951 b 582 865 510 951 563 922 b 590 741 585 837 590 787 l 621 733 b 651 1102 620 852 630 1002 l 620 1097 b 593 979 615 1067 598 997 b 473 994 574 984 527 994 b 153 462 190 994 168 705 l 28 462 l 17 410 b 150 421 50 415 110 421 b 125 -255 145 332 135 -133 l 197 -221 "},"e":{"x_min":65.359375,"x_max":774.5,"ha":885,"o":"m 221 476 b 212 43 221 323 217 68 b 72 23 175 33 93 25 l 65 -5 b 272 0 118 -2 225 0 b 699 -12 358 0 660 -5 b 701 -97 701 -34 701 -59 l 729 -102 b 774 218 735 -33 764 177 l 743 209 b 713 87 735 179 728 136 b 386 40 650 51 522 40 b 377 468 382 80 377 383 l 377 495 b 642 465 494 495 600 487 b 639 372 642 437 641 401 l 665 361 b 701 620 672 405 696 595 l 672 618 b 658 558 669 598 665 579 b 377 536 626 545 494 536 l 377 563 b 386 933 377 645 382 913 b 692 875 458 933 668 915 b 692 775 694 847 692 784 l 722 765 b 750 1052 725 808 743 1023 l 718 1047 b 707 981 715 1022 711 998 b 307 972 671 972 351 972 b 187 973 277 972 232 973 b 65 977 142 975 98 976 l 70 948 b 212 929 103 944 186 934 b 221 540 217 886 221 665 l 221 476 "},"J":{"x_min":29.9375,"x_max":533.5625,"ha":582,"o":"m 377 571 b 383 929 377 601 378 886 b 529 948 431 934 506 946 l 533 978 b 298 972 487 975 371 972 b 29 978 223 972 62 975 l 35 948 b 215 929 74 946 182 934 b 227 569 225 857 227 622 l 227 473 b 194 -81 227 162 215 -9 b 50 -330 179 -138 156 -215 l 78 -340 b 313 -103 225 -226 279 -163 b 377 176 371 -1 377 61 l 377 497 l 377 571 "},"|":{"x_min":147,"x_max":236.828125,"ha":390,"o":"m 236 -361 l 236 1087 l 147 1087 l 147 -361 l 236 -361 "},"˘":{"x_min":429,"x_max":819.640625,"ha":1274,"o":"m 796 1255 b 626 1188 776 1229 717 1188 b 454 1255 541 1188 480 1222 l 429 1233 b 615 1106 452 1180 512 1106 b 819 1233 725 1106 789 1183 l 796 1255 "},"^":{"x_min":99,"x_max":731,"ha":847,"o":"m 731 429 b 416 989 638 584 481 875 b 99 420 327 823 209 612 l 169 404 b 410 865 261 572 352 743 b 635 394 473 734 560 547 l 731 429 "},"q":{"x_min":74.859375,"x_max":1308.03125,"ha":1314,"o":"m 1308 -313 b 932 51 1253 -277 1007 -63 b 1212 534 1095 145 1212 309 b 1088 844 1212 590 1203 730 b 666 994 981 952 834 994 b 74 472 279 994 74 730 b 204 126 74 416 77 255 b 619 -22 325 2 495 -22 b 698 -17 645 -22 673 -19 b 758 -11 724 -15 745 -12 b 1276 -327 831 -77 1192 -312 l 1308 -313 m 675 30 b 227 523 436 30 227 286 b 611 943 227 795 411 943 b 1052 462 841 943 1052 727 b 675 30 1052 232 918 30 "},"b":{"x_min":65.328125,"x_max":830.28125,"ha":949,"o":"m 221 468 b 212 43 221 345 221 138 b 70 23 183 34 102 26 l 65 -5 b 272 0 104 -2 242 0 b 398 -5 300 0 351 -2 b 513 -11 447 -8 494 -11 b 830 255 702 -11 830 95 b 551 523 830 402 686 501 l 551 527 b 726 672 596 547 676 591 b 762 802 760 727 762 762 b 455 983 762 868 721 983 b 65 972 370 983 110 973 l 72 943 b 212 929 111 940 166 937 b 221 555 217 872 221 655 l 221 468 m 368 482 b 529 448 401 486 475 477 b 677 202 622 398 677 291 b 494 33 677 107 623 33 b 385 62 466 33 416 40 b 368 407 378 80 368 287 l 368 482 m 368 601 b 372 937 368 726 370 923 b 427 945 385 943 405 945 b 611 745 539 945 611 865 b 532 570 611 675 582 608 b 368 523 480 532 411 523 l 368 601 "},"D":{"x_min":65.328125,"x_max":1211.390625,"ha":1306,"o":"m 221 474 b 212 42 221 313 219 65 b 70 22 179 32 96 24 l 65 -6 b 462 -3 98 -4 386 -3 b 1211 577 985 -3 1211 283 b 988 913 1211 703 1147 835 b 604 977 898 957 763 977 b 289 971 499 977 337 971 b 65 977 232 971 85 974 l 68 947 b 212 928 100 945 176 935 b 221 583 219 900 221 646 l 221 474 m 377 515 b 386 917 377 577 382 896 b 506 925 415 922 475 925 b 895 822 632 925 796 897 b 1043 502 1008 736 1043 620 b 534 50 1043 206 794 50 b 386 75 499 50 446 52 b 377 461 381 125 377 386 l 377 515 "},"ﬂ":{"x_min":65.328125,"x_max":1656.46875,"ha":1701,"o":"m 221 455 b 215 43 221 301 219 75 b 70 23 176 32 87 26 l 65 -5 b 292 0 112 -2 215 0 b 543 -5 383 0 495 -2 l 537 23 b 387 43 506 26 439 32 b 377 443 381 82 377 328 l 377 484 b 654 450 454 484 622 475 b 661 332 658 408 661 361 l 690 323 b 711 633 692 428 703 566 l 683 629 b 664 547 677 603 671 568 b 377 528 620 533 443 528 l 377 558 b 387 930 377 662 381 911 b 722 865 455 930 673 912 b 729 755 726 839 729 778 l 760 744 b 784 1086 762 847 773 1022 l 752 1079 b 735 980 748 1048 739 997 b 303 972 706 972 362 972 b 182 973 277 972 230 973 b 65 978 136 975 89 976 l 70 948 b 215 929 111 944 197 937 b 221 541 219 890 221 666 l 221 455 m 1087 509 b 1080 43 1087 372 1086 104 b 936 23 1052 33 956 25 l 931 -5 b 1162 0 969 -2 1094 0 b 1559 -8 1235 0 1529 -5 b 1553 -170 1559 -45 1553 -151 l 1584 -177 b 1656 279 1603 8 1629 155 l 1623 273 b 1574 115 1612 234 1595 162 b 1249 44 1523 80 1411 44 b 1242 523 1244 75 1242 341 l 1242 573 b 1249 929 1242 684 1244 884 b 1410 948 1303 934 1377 946 l 1416 978 b 1166 972 1389 975 1257 972 b 931 978 1083 972 965 975 l 935 948 b 1080 929 970 946 1050 934 b 1087 590 1086 884 1087 669 l 1087 509 "},"z":{"x_min":36.75,"x_max":918.75,"ha":997,"o":"m 887 306 b 830 126 877 272 847 150 b 266 50 759 66 435 43 b 917 963 338 162 842 868 b 528 956 833 959 556 956 b 183 969 494 956 212 963 b 179 1098 182 990 181 1061 l 148 1105 b 104 690 144 1045 134 823 l 136 694 b 185 855 144 718 171 819 b 694 915 225 894 601 918 b 36 -8 650 834 104 65 b 408 0 157 -4 349 0 b 819 -16 533 0 803 -6 b 812 -150 819 -43 813 -123 l 843 -159 b 918 315 849 -88 911 275 l 887 306 "},"ˆ":{"x_min":443.671875,"x_max":803,"ha":1274,"o":"m 469 1072 b 613 1163 487 1085 579 1148 b 777 1072 642 1148 762 1080 l 803 1105 b 616 1273 777 1126 669 1224 b 443 1103 593 1245 474 1131 l 469 1072 "},"w":{"x_min":-36.9375,"x_max":1481,"ha":1464,"o":"m -31 948 b 70 929 9 941 37 937 b 387 -72 144 763 340 44 b 713 757 461 99 666 638 b 1038 -72 752 642 1001 7 b 1389 929 1052 -25 1350 886 b 1476 948 1412 937 1446 944 l 1481 978 b 1304 972 1438 975 1382 972 b 1125 978 1222 972 1154 975 l 1132 948 b 1260 928 1177 941 1220 937 b 1072 210 1252 794 1090 273 l 1069 210 b 822 892 1024 327 852 813 b 930 914 847 903 890 907 l 935 944 b 740 938 902 941 824 938 b 547 944 661 938 598 941 l 553 914 b 687 892 577 910 647 900 b 443 219 657 763 459 266 l 440 219 b 251 928 416 282 265 867 b 375 948 284 934 356 944 l 382 978 b 163 972 351 975 278 972 b -36 978 58 972 1 975 l -31 948 "},"$":{"x_min":56.890625,"x_max":609.640625,"ha":738,"o":"m 368 -215 l 381 30 b 597 280 511 56 597 155 b 428 542 597 413 519 488 l 459 902 b 557 801 496 891 547 841 l 557 718 l 589 706 b 609 981 589 837 601 939 l 576 976 b 566 928 574 962 570 941 b 464 955 547 934 508 948 b 500 1189 478 1080 485 1130 l 435 1179 l 418 961 b 346 961 391 962 364 962 b 368 1189 354 1089 360 1135 l 308 1179 l 300 953 b 112 725 161 919 112 814 b 261 490 112 605 173 545 l 221 86 b 107 175 172 100 129 140 b 103 279 105 212 103 263 l 71 283 b 56 -18 74 238 65 43 l 88 -11 b 101 62 95 25 97 41 b 213 27 120 48 171 33 b 169 -227 194 -126 182 -179 l 235 -215 l 260 25 b 338 25 286 20 319 22 b 305 -227 323 -80 315 -154 l 368 -215 m 273 640 b 201 773 229 666 201 706 b 296 909 201 843 251 900 l 273 640 m 387 570 l 315 609 l 344 918 b 417 916 356 922 387 922 l 387 570 m 417 397 b 502 236 469 360 502 313 b 385 80 502 151 440 93 l 417 397 m 303 465 l 373 424 l 339 73 b 265 73 324 71 292 71 l 303 465 "},"\\":{"x_min":5,"x_max":662,"ha":681,"o":"m 550 0 l 662 -8 b 328 575 617 51 385 472 b 111 972 282 658 113 947 l 5 973 b 286 511 47 925 221 627 b 550 0 358 383 504 100 "},"’":{"x_min":66.96875,"x_max":248,"ha":319,"o":"m 103 691 b 248 998 147 787 201 914 l 121 1044 b 66 689 118 930 105 812 l 103 691 "},"~":{"x_min":109,"x_max":717,"ha":847,"o":"m 717 508 l 688 533 b 572 458 661 508 612 459 b 428 501 536 456 462 487 b 264 554 396 513 299 554 b 109 429 205 554 141 472 l 138 404 b 255 479 160 424 223 479 b 400 430 280 479 375 440 b 561 383 434 417 525 383 b 717 508 623 381 681 463 "},"-":{"x_min":95,"x_max":516.9375,"ha":625,"o":"m 105 555 l 95 443 b 499 488 194 465 432 488 l 516 555 l 105 555 "},"Q":{"x_min":74.859375,"x_max":1308.03125,"ha":1314,"o":"m 1308 -313 b 932 51 1253 -277 1007 -63 b 1212 534 1095 145 1212 309 b 1088 844 1212 590 1203 730 b 666 994 981 952 834 994 b 74 472 279 994 74 730 b 204 126 74 416 77 255 b 619 -22 325 2 495 -22 b 698 -17 645 -22 673 -19 b 758 -11 724 -15 745 -12 b 1276 -327 831 -77 1192 -312 l 1308 -313 m 675 30 b 227 523 436 30 227 286 b 611 943 227 795 411 943 b 1052 462 841 943 1052 727 b 675 30 1052 232 918 30 "},"M":{"x_min":-1,"x_max":1432,"ha":1472,"o":"m 988 -6 b 1240 0 1027 -3 1177 0 b 1432 -6 1304 0 1385 -3 l 1425 23 b 1312 42 1400 27 1346 34 b 1133 929 1289 130 1159 773 b 1248 948 1162 936 1229 946 l 1252 978 b 1063 972 1221 975 1106 972 b 879 978 1015 972 923 975 l 886 948 b 978 929 910 944 952 939 b 701 242 976 897 740 322 b 453 929 659 348 493 802 b 555 948 479 934 517 944 l 561 978 b 356 972 522 975 415 972 b 160 978 284 972 178 975 l 169 948 b 303 929 184 946 267 934 b 105 41 283 815 135 128 b 8 23 75 32 31 27 l -1 -6 b 150 0 43 -3 113 0 b 352 -6 175 0 333 -3 l 347 23 b 226 42 326 25 250 37 b 336 820 220 221 301 608 l 341 820 b 652 -11 358 768 614 75 b 997 819 693 68 961 734 l 1003 819 b 1140 39 1019 716 1138 91 b 991 23 1113 37 1010 24 l 988 -6 "},"C":{"x_min":74.859375,"x_max":1067.109375,"ha":1124,"o":"m 1009 659 b 1039 1089 1011 791 1019 936 l 1008 1082 b 980 958 1004 1065 988 976 b 695 994 941 969 815 994 b 289 879 558 994 431 976 b 74 464 170 797 74 655 b 356 39 74 286 179 128 b 665 -21 466 -16 615 -21 b 1048 61 879 -21 1016 34 l 1067 121 b 744 46 970 62 847 46 b 238 546 457 46 238 275 b 642 946 238 762 394 946 b 970 784 818 946 944 846 b 978 669 974 761 978 696 l 1009 659 "},"[":{"x_min":129.3125,"x_max":421.9375,"ha":486,"o":"m 250 611 b 259 1031 250 666 251 995 l 415 1047 l 421 1083 l 129 1073 b 134 602 132 1054 134 661 l 134 497 b 129 -165 134 300 136 -101 l 412 -175 l 421 -138 l 259 -118 b 250 500 247 -66 250 294 l 250 611 "},"L":{"x_min":65.328125,"x_max":790.8125,"ha":818,"o":"m 221 509 b 215 43 221 372 220 104 b 70 23 186 33 91 25 l 65 -5 b 296 0 103 -2 228 0 b 694 -8 370 0 664 -5 b 687 -170 694 -45 687 -151 l 718 -177 b 790 279 737 8 763 155 l 758 273 b 709 115 747 234 729 162 b 383 44 657 80 545 44 b 377 523 378 75 377 341 l 377 573 b 383 929 377 684 378 884 b 544 948 438 934 511 946 l 551 978 b 300 972 524 975 392 972 b 65 978 217 972 99 975 l 69 948 b 215 929 104 946 185 934 b 221 590 220 884 221 669 l 221 509 "},"!":{"x_min":147.28125,"x_max":344.640625,"ha":500,"o":"m 243 269 b 344 985 252 383 324 890 b 156 961 276 973 231 968 b 189 253 173 861 190 326 l 243 269 m 301 -1 l 292 146 l 147 128 l 151 -20 l 301 -1 "}," ":{"x_min":0,"x_max":0,"ha":347},"ﬁ":{"x_min":65.328125,"x_max":1399.21875,"ha":1494,"o":"m 221 455 b 215 42 221 301 219 74 b 70 23 176 31 87 25 l 65 -6 b 292 0 112 -3 215 0 b 543 -6 383 0 495 -3 l 537 23 b 387 42 506 25 439 31 b 377 442 381 81 377 327 l 377 484 b 654 449 454 484 622 474 b 661 331 658 408 661 360 l 690 323 b 711 633 692 427 703 566 l 683 629 b 664 547 677 602 671 568 b 377 527 620 533 443 527 l 377 558 b 387 930 377 662 381 911 b 722 865 455 930 673 912 b 729 755 726 839 729 777 l 760 744 b 784 1086 762 847 773 1022 l 752 1079 b 735 980 748 1048 739 997 b 303 972 706 972 362 972 b 182 973 277 972 230 973 b 65 978 136 975 89 976 l 70 948 b 215 929 111 944 197 937 b 221 541 219 890 221 666 l 221 455 m 1242 569 b 1249 929 1242 740 1244 901 b 1392 948 1298 934 1365 946 l 1399 978 b 1189 972 1376 975 1259 972 b 931 978 1082 972 956 975 l 937 948 b 1080 929 963 946 1053 934 b 1087 576 1086 882 1087 622 l 1087 494 b 1080 42 1087 358 1086 101 b 936 23 1052 37 959 24 l 931 -6 b 1143 0 971 -3 1097 0 b 1399 -6 1227 0 1369 -3 l 1392 23 b 1249 42 1365 25 1283 34 b 1242 483 1244 70 1242 302 l 1242 569 "},"{":{"x_min":40.765625,"x_max":422.4375,"ha":486,"o":"m 422 -143 b 249 59 350 -129 234 -109 l 270 300 b 146 504 276 379 242 461 b 263 683 181 529 265 570 l 259 879 b 412 1044 256 1006 340 1041 l 419 1083 b 131 852 217 1065 131 973 b 148 626 131 806 148 654 b 51 523 148 558 123 523 l 40 491 b 156 370 129 477 156 440 b 119 61 156 323 119 105 b 404 -177 119 -102 280 -166 l 422 -143 "},"X":{"x_min":-30,"x_max":980,"ha":985,"o":"m 980 -49 b 549 568 882 80 628 458 b 857 929 592 622 832 921 b 941 948 879 934 916 941 l 944 978 b 803 972 910 975 860 972 b 626 978 729 972 657 975 l 631 948 b 728 929 649 946 705 937 b 519 611 694 858 559 664 b 307 929 487 648 325 893 b 423 948 334 936 371 943 l 431 978 b 215 972 375 975 287 972 b 6 978 92 972 23 975 l 10 948 b 99 929 39 943 74 937 b 421 497 161 862 325 622 b 65 43 376 439 121 78 b -20 23 39 32 6 28 l -30 -5 b 118 0 4 -2 42 0 b 321 -5 195 0 299 -5 l 317 23 b 204 43 292 26 234 36 b 454 453 255 153 417 411 b 922 -63 514 383 733 82 l 980 -49 "},"P":{"x_min":65.328125,"x_max":828.921875,"ha":888,"o":"m 374 580 b 381 937 374 700 375 897 b 556 906 441 937 511 929 b 666 718 626 872 666 802 b 453 445 666 508 502 458 l 449 411 b 735 547 498 418 645 455 b 828 768 789 602 828 673 b 695 938 828 802 816 887 b 367 979 628 966 515 979 b 65 977 304 979 106 977 l 69 948 b 215 929 102 945 189 938 b 221 584 220 881 221 629 l 221 529 b 215 43 221 400 220 104 b 70 23 179 36 91 26 l 65 -5 b 300 0 103 -2 232 0 b 560 -5 363 0 515 -2 l 553 23 b 381 43 511 27 413 37 b 374 522 375 83 374 404 l 374 580 "},"%":{"x_min":68.0625,"x_max":973.203125,"ha":1063,"o":"m 397 733 b 291 566 397 605 330 566 b 171 766 189 566 171 713 b 280 934 171 890 227 934 b 397 733 382 934 397 777 m 272 526 b 500 768 394 526 500 633 b 296 972 500 898 431 972 b 68 731 164 972 68 862 b 272 526 68 598 141 526 m 306 0 b 570 511 352 100 498 383 b 856 975 635 627 809 920 l 748 972 b 530 575 745 947 577 658 b 197 -8 473 472 242 52 l 306 0 m 744 0 b 973 240 868 0 973 104 b 769 444 973 373 902 444 b 540 205 637 444 540 334 b 744 0 540 73 615 0 m 764 40 b 643 240 661 40 643 194 b 752 406 643 363 699 406 b 869 208 856 406 869 244 b 764 40 869 79 803 40 "},"#":{"x_min":47.3125,"x_max":700.78125,"ha":764,"o":"m 289 464 b 301 607 293 517 295 555 b 454 610 356 610 399 610 b 442 464 450 556 447 519 l 289 464 m 47 380 b 212 394 93 385 146 389 b 179 119 202 294 190 185 l 271 124 b 285 396 272 182 279 299 b 437 400 339 399 382 400 b 402 119 426 299 413 187 l 495 124 b 508 400 496 182 502 302 b 683 394 586 400 624 399 l 693 464 l 513 464 b 525 610 517 519 519 557 b 689 603 597 610 635 607 l 700 674 l 532 674 b 563 920 541 763 553 860 l 470 913 b 457 674 469 862 462 762 l 308 674 b 339 920 317 763 329 860 l 247 913 b 233 674 245 862 239 762 l 66 674 l 55 589 b 229 605 105 595 157 600 b 218 464 226 553 224 516 l 58 464 l 47 380 "},"_":{"x_min":0,"x_max":680.5625,"ha":694,"o":"m 680 -173 l 680 -104 l 0 -104 l 0 -173 l 680 -173 "},"+":{"x_min":102.078125,"x_max":728.203125,"ha":847,"o":"m 465 804 l 372 793 b 378 511 375 719 379 597 l 112 511 l 102 423 b 377 443 185 433 272 440 b 359 140 374 330 368 227 l 451 155 b 445 443 447 231 443 354 b 717 437 547 444 616 445 l 728 511 l 446 511 b 465 804 449 618 455 719 "},"‚":{"x_min":67.5,"x_max":239,"ha":319,"o":"m 104 -170 b 239 141 143 -70 196 49 l 121 186 b 67 -168 120 72 105 -45 l 104 -170 "},")":{"x_min":55.8125,"x_max":372.9375,"ha":486,"o":"m 72 1078 b 246 459 133 991 246 815 b 55 -185 246 148 119 -90 l 118 -176 b 372 544 308 113 372 321 b 130 1088 372 821 186 1038 l 72 1078 "},"'":{"x_min":34.03125,"x_max":167.421875,"ha":206,"o":"m 121 658 b 167 994 134 769 152 891 l 34 1009 b 80 650 53 901 68 783 l 121 658 "},"}":{"x_min":54.109375,"x_max":436.1875,"ha":486,"o":"m 71 -177 b 357 61 196 -166 357 -102 b 320 370 357 105 320 323 b 436 491 320 440 347 477 l 425 523 b 328 626 353 523 328 558 b 344 852 328 654 344 806 b 56 1083 344 973 258 1065 l 63 1044 b 217 879 135 1041 220 1006 l 213 683 b 330 504 210 570 295 529 b 206 300 233 461 199 379 l 226 59 b 54 -143 241 -109 126 -129 l 71 -177 "},"‰":{"x_min":68.0625,"x_max":1461.828125,"ha":1561,"o":"m 397 733 b 291 566 397 605 330 566 b 171 766 189 566 171 713 b 280 934 171 890 227 934 b 397 733 382 934 397 777 m 272 526 b 500 768 394 526 500 633 b 296 972 500 898 431 972 b 68 731 164 972 68 862 b 272 526 68 598 141 526 m 306 0 b 570 511 352 100 498 383 b 856 975 635 627 809 920 l 748 972 b 530 575 745 947 577 658 b 197 -8 473 472 242 52 l 306 0 m 744 0 b 973 240 868 0 973 104 b 769 444 973 373 902 444 b 540 205 637 444 540 334 b 744 0 540 73 615 0 m 764 40 b 643 240 661 40 643 194 b 752 406 643 363 699 406 b 869 208 856 406 869 244 b 764 40 869 79 803 40 m 1233 0 b 1461 240 1357 0 1461 104 b 1257 444 1461 373 1391 444 b 1029 205 1125 444 1029 334 b 1233 0 1029 73 1103 0 m 1253 40 b 1132 240 1150 40 1132 194 b 1241 406 1132 363 1188 406 b 1358 208 1344 406 1358 244 b 1253 40 1358 79 1291 40 "},"˛":{"x_min":487.28125,"x_max":745.890625,"ha":1274,"o":"m 630 0 b 487 -217 596 -19 487 -131 b 733 -318 487 -292 583 -332 l 745 -281 b 586 -174 717 -285 590 -278 b 673 0 582 -100 653 -19 l 630 0 "},"a":{"x_min":-75,"x_max":1030,"ha":989,"o":"m 574 -6 b 804 0 610 -3 764 0 b 1030 -6 876 0 1013 -3 l 1025 23 b 906 42 985 28 945 34 b 721 505 843 164 759 398 b 578 930 669 650 594 869 b 681 948 609 938 646 944 l 685 977 b 453 971 646 974 510 971 b 276 977 429 971 316 974 l 277 948 b 384 930 310 944 355 938 b 46 42 365 877 95 130 b -70 23 9 34 -31 27 l -75 -6 b 82 0 -43 -3 47 0 b 288 -6 122 0 246 -3 l 282 23 b 165 42 244 27 199 32 b 261 431 179 149 252 412 b 575 449 311 439 527 449 b 718 42 597 409 693 114 b 580 23 676 32 628 27 l 574 -6 m 565 491 l 280 496 b 424 906 293 542 382 782 l 427 906 b 565 491 450 830 536 582 "},"T":{"x_min":12.25,"x_max":1019.46875,"ha":1036,"o":"m 430 510 b 423 42 430 389 427 150 b 249 23 390 38 280 25 l 242 -6 b 506 0 281 -3 445 0 b 773 -6 581 0 740 -3 l 767 23 b 592 42 741 25 617 38 b 585 510 588 153 585 388 l 585 573 b 592 913 585 673 588 875 b 947 855 724 913 913 882 b 944 712 948 824 947 767 l 975 703 b 1019 1062 980 745 1011 1030 l 985 1056 b 966 970 980 1030 971 987 b 511 956 944 966 709 956 b 72 970 328 956 93 966 b 63 1060 68 999 65 1042 l 32 1066 b 12 716 34 956 17 782 l 43 724 b 70 855 51 770 59 824 b 423 913 107 878 205 913 b 430 573 427 881 430 675 l 430 510 "},"—":{"x_min":0,"x_max":1361.109375,"ha":1389,"o":"m 10 555 l 0 452 b 809 472 121 468 488 472 b 1350 466 1090 472 1335 468 l 1361 555 l 10 555 "},"=":{"x_min":102,"x_max":728,"ha":847,"o":"m 717 540 l 728 613 l 405 613 l 112 613 l 102 526 b 405 545 185 536 300 543 b 717 540 507 547 616 548 m 717 329 l 728 402 l 405 402 l 112 402 l 102 315 b 405 334 185 325 300 331 b 717 329 507 336 616 337 "},"N":{"x_min":54.4375,"x_max":1188.25,"ha":1261,"o":"m 59 942 b 209 925 111 939 178 932 b 171 42 209 879 194 100 b 58 23 140 32 96 28 l 54 -6 b 239 0 93 -3 200 0 b 441 -6 274 0 416 -3 l 436 23 b 288 42 411 25 308 35 b 258 849 270 92 254 821 b 581 453 303 796 562 474 b 1030 -69 612 417 989 -31 b 1053 634 1038 -14 1049 568 b 1079 928 1056 678 1063 874 b 1182 947 1116 933 1165 945 l 1188 977 b 1016 971 1159 974 1046 971 b 813 977 986 971 839 974 l 820 947 b 958 928 858 945 931 933 b 986 214 985 856 986 368 b 691 559 943 252 726 520 b 364 981 668 584 394 933 b 54 971 258 975 130 974 l 59 942 "},"˚":{"x_min":466.859375,"x_max":781.28125,"ha":1274,"o":"m 604 1073 b 781 1198 717 1073 781 1147 b 631 1287 781 1248 736 1287 b 466 1163 556 1287 466 1233 b 604 1073 466 1105 528 1073 m 543 1187 b 619 1259 543 1230 585 1259 b 700 1175 672 1259 700 1213 b 628 1101 700 1130 666 1101 b 543 1187 590 1101 543 1133 "},"⁄":{"x_min":-95,"x_max":537,"ha":450,"o":"m 537 1028 l 481 1060 l -95 -80 l -41 -113 l 537 1028 "},"2":{"x_min":-9.53125,"x_max":694.171875,"ha":803,"o":"m 661 286 b 626 151 654 245 637 184 b 338 100 593 123 447 102 l 197 95 l 197 98 b 400 266 265 148 363 229 b 645 712 541 406 645 552 b 294 994 645 883 518 994 b 210 988 264 994 236 993 b 144 975 186 986 163 980 b 134 1063 138 1011 137 1030 l 103 1073 b 74 720 103 951 89 816 l 107 727 b 138 897 111 752 129 855 b 265 933 159 915 193 933 b 487 636 357 933 487 855 b 287 243 487 513 424 380 b -9 0 235 191 164 125 l 281 0 b 611 -4 371 0 462 0 b 617 -102 617 -66 615 -31 l 647 -112 b 664 61 656 -4 654 -16 b 694 293 675 145 688 241 l 661 286 "},"j":{"x_min":29.9375,"x_max":533.5625,"ha":582,"o":"m 377 571 b 383 929 377 601 378 886 b 529 948 431 934 506 946 l 533 978 b 298 972 487 975 371 972 b 29 978 223 972 62 975 l 35 948 b 215 929 74 946 182 934 b 227 569 225 857 227 622 l 227 473 b 194 -81 227 162 215 -9 b 50 -330 179 -138 156 -215 l 78 -340 b 313 -103 225 -226 279 -163 b 377 176 371 -1 377 61 l 377 497 l 377 571 "},"Z":{"x_min":36.75,"x_max":918.75,"ha":997,"o":"m 887 306 b 830 126 877 272 847 150 b 266 50 759 66 435 43 b 917 963 338 162 842 868 b 528 956 833 959 556 956 b 183 969 494 956 212 963 b 179 1098 182 990 181 1061 l 148 1105 b 104 690 144 1045 134 823 l 136 694 b 185 855 144 718 171 819 b 694 915 225 894 601 918 b 36 -8 650 834 104 65 b 408 0 157 -4 349 0 b 819 -16 533 0 803 -6 b 812 -150 819 -43 813 -123 l 843 -159 b 918 315 849 -88 911 275 l 887 306 "},"u":{"x_min":59.890625,"x_max":1114.75,"ha":1190,"o":"m 178 398 b 589 -22 178 155 307 -22 b 873 75 724 -22 811 18 b 1007 459 978 169 1007 303 b 1004 630 1007 509 1004 576 l 1004 697 b 1011 929 1004 734 1007 908 b 1106 948 1046 937 1083 943 l 1114 978 b 948 972 1091 975 1019 972 b 728 978 864 972 762 975 l 737 948 b 886 929 773 946 854 934 b 892 584 891 883 892 629 l 892 457 b 801 97 892 290 875 168 b 605 30 755 53 695 30 b 336 425 458 30 336 130 l 336 609 b 343 929 336 729 338 905 b 484 948 386 937 447 944 l 491 978 b 289 972 457 975 352 972 b 59 978 185 972 98 975 l 63 948 b 171 929 100 943 142 936 b 178 615 175 890 178 740 l 178 398 "},"1":{"x_min":28.578125,"x_max":615.21875,"ha":643,"o":"m 409 551 b 426 1008 409 726 419 938 b 28 881 280 961 78 894 l 38 852 b 253 881 93 861 194 879 b 259 558 258 819 259 604 l 259 465 b 253 44 259 327 258 104 b 35 23 217 41 55 25 l 29 -5 b 330 0 66 -2 264 0 b 615 -5 394 0 579 -2 l 608 23 b 416 44 579 26 443 38 b 409 491 412 72 409 309 l 409 551 "},"›":{"x_min":108,"x_max":383,"ha":500,"o":"m 108 620 b 271 491 132 605 223 536 b 113 336 230 449 152 372 l 127 286 b 383 501 150 311 336 462 b 128 720 363 516 148 698 l 108 620 "},"˜":{"x_min":407,"x_max":841.1875,"ha":1274,"o":"m 803 1210 b 729 1168 777 1165 747 1168 b 608 1202 690 1168 646 1187 b 511 1233 570 1217 540 1233 b 407 1105 470 1233 419 1141 l 445 1097 b 525 1147 470 1141 500 1147 b 631 1115 548 1147 590 1132 b 735 1084 666 1100 706 1084 b 841 1202 779 1084 827 1162 l 803 1210 "},"k":{"x_min":65.328125,"x_max":1112.03125,"ha":1111,"o":"m 221 488 b 215 42 221 290 219 103 b 70 23 182 34 103 25 l 65 -6 b 298 0 104 -3 234 0 b 541 -6 371 0 515 -3 l 539 23 b 383 49 518 25 419 34 b 377 416 378 101 377 295 l 377 449 b 462 522 394 466 436 502 b 1065 -40 500 480 959 0 l 1112 -25 b 596 630 1041 41 649 544 b 965 932 653 683 906 900 b 1054 948 1000 941 1034 946 l 1063 978 b 914 972 1016 975 954 972 b 707 978 861 972 764 975 l 713 948 b 813 929 743 944 782 937 b 377 512 774 861 465 591 l 377 555 b 383 929 377 669 378 884 b 522 948 415 934 506 946 l 528 978 b 304 972 502 975 355 972 b 65 978 249 972 92 975 l 69 948 b 215 929 102 946 182 934 b 221 568 219 891 221 698 l 221 488 "},"ˇ":{"x_min":445,"x_max":802.96875,"ha":1274,"o":"m 778 1273 b 634 1181 760 1259 668 1195 b 470 1273 605 1191 481 1264 l 445 1239 b 631 1072 470 1218 578 1114 b 802 1239 657 1099 774 1209 l 778 1273 "},"€":{"x_min":-21.78125,"x_max":798.96875,"ha":803,"o":"m 12 428 l -21 352 b 103 363 14 356 65 360 b 521 -22 140 128 307 -22 b 785 80 619 -22 709 16 l 798 137 b 583 39 733 85 658 39 b 251 371 438 39 303 174 b 314 373 272 373 292 373 b 623 366 423 374 514 376 l 653 428 l 238 428 b 228 527 232 460 230 494 b 359 531 268 530 314 531 b 671 524 468 533 562 534 l 700 587 l 230 587 b 522 946 243 784 356 946 b 722 793 649 946 703 854 b 728 684 725 769 728 711 l 764 674 b 781 1047 766 806 766 894 l 747 1040 b 729 953 744 1023 735 971 b 543 994 702 964 628 994 b 107 587 313 994 148 830 l 43 587 l 10 510 b 99 519 32 513 77 516 b 96 463 98 501 96 481 b 98 428 96 452 98 439 l 12 428 "},"<":{"x_min":102.046875,"x_max":731,"ha":847,"o":"m 695 149 l 731 246 b 229 477 568 322 370 414 b 721 726 359 539 543 632 l 703 800 b 102 475 502 687 277 566 l 102 472 b 695 149 223 404 530 244 "},"t":{"x_min":12.25,"x_max":1019.46875,"ha":1036,"o":"m 430 510 b 423 42 430 389 427 150 b 249 23 390 38 280 25 l 242 -6 b 506 0 281 -3 445 0 b 773 -6 581 0 740 -3 l 767 23 b 592 42 741 25 617 38 b 585 510 588 153 585 388 l 585 573 b 592 913 585 673 588 875 b 947 855 724 913 913 882 b 944 712 948 824 947 767 l 975 703 b 1019 1062 980 745 1011 1030 l 985 1056 b 966 970 980 1030 971 987 b 511 956 944 966 709 956 b 72 970 328 956 93 966 b 63 1060 68 999 65 1042 l 32 1066 b 12 716 34 956 17 782 l 43 724 b 70 855 51 770 59 824 b 423 913 107 878 205 913 b 430 573 427 881 430 675 l 430 510 "},"W":{"x_min":-36.9375,"x_max":1481,"ha":1464,"o":"m -31 948 b 70 929 9 941 37 937 b 387 -72 144 763 340 44 b 713 757 461 99 666 638 b 1038 -72 752 642 1001 7 b 1389 929 1052 -25 1350 886 b 1476 948 1412 937 1446 944 l 1481 978 b 1304 972 1438 975 1382 972 b 1125 978 1222 972 1154 975 l 1132 948 b 1260 928 1177 941 1220 937 b 1072 210 1252 794 1090 273 l 1069 210 b 822 892 1024 327 852 813 b 930 914 847 903 890 907 l 935 944 b 740 938 902 941 824 938 b 547 944 661 938 598 941 l 553 914 b 687 892 577 910 647 900 b 443 219 657 763 459 266 l 440 219 b 251 928 416 282 265 867 b 375 948 284 934 356 944 l 382 978 b 163 972 351 975 278 972 b -36 978 58 972 1 975 l -31 948 "},"v":{"x_min":-42.109375,"x_max":1090,"ha":1038,"o":"m -36 948 b 47 929 6 941 30 934 b 510 -60 114 834 466 16 b 1000 929 528 -16 971 912 b 1083 948 1035 937 1057 943 l 1090 978 b 937 972 1057 975 1001 972 b 738 978 854 972 758 975 l 745 948 b 870 929 789 941 845 934 b 566 197 843 782 597 261 b 254 929 530 241 264 882 b 382 948 277 937 353 946 l 389 978 b 153 972 359 975 238 972 b -42 978 77 972 1 975 l -36 948 "},">":{"x_min":106,"x_max":734.953125,"ha":847,"o":"m 141 800 l 106 702 b 607 471 268 626 466 534 b 115 222 477 409 293 316 l 133 149 b 734 473 337 262 557 382 l 734 476 b 141 800 609 545 303 705 "},"s":{"x_min":86.234375,"x_max":670,"ha":767,"o":"m 117 -131 b 147 12 127 -80 140 -13 b 335 -22 185 -8 269 -22 b 670 280 520 -22 670 87 b 442 605 670 455 555 533 b 246 810 339 672 246 720 b 412 949 246 873 295 949 b 593 824 508 949 578 874 b 599 719 596 799 599 766 l 630 705 b 663 1085 630 819 644 948 l 631 1081 b 607 969 623 1044 616 1002 b 423 994 574 977 503 994 b 143 749 222 994 143 858 b 382 426 143 592 249 515 b 557 200 471 368 557 312 b 363 25 557 97 471 25 b 152 176 269 25 189 87 b 143 298 148 201 142 280 l 112 306 b 108 87 116 273 108 123 b 86 -140 108 33 88 -120 l 117 -131 "},"B":{"x_min":65.328125,"x_max":830.28125,"ha":949,"o":"m 221 468 b 212 43 221 345 221 138 b 70 23 183 34 102 26 l 65 -5 b 272 0 104 -2 242 0 b 398 -5 300 0 351 -2 b 513 -11 447 -8 494 -11 b 830 255 702 -11 830 95 b 551 523 830 402 686 501 l 551 527 b 726 672 596 547 676 591 b 762 802 760 727 762 762 b 455 983 762 868 721 983 b 65 972 370 983 110 973 l 72 943 b 212 929 111 940 166 937 b 221 555 217 872 221 655 l 221 468 m 368 482 b 529 448 401 486 475 477 b 677 202 622 398 677 291 b 494 33 677 107 623 33 b 385 62 466 33 416 40 b 368 407 378 80 368 287 l 368 482 m 368 601 b 372 937 368 726 370 923 b 427 945 385 943 405 945 b 611 745 539 945 611 865 b 532 570 611 675 582 608 b 368 523 480 532 411 523 l 368 601 "},"…":{"x_min":147,"x_max":1208.671875,"ha":1389,"o":"m 755 1 l 749 138 l 600 111 l 605 -27 l 755 1 m 1208 1 l 1203 138 l 1053 111 l 1058 -27 l 1208 1 m 302 1 l 296 138 l 147 111 l 152 -27 l 302 1 "},"?":{"x_min":126.484375,"x_max":725.375,"ha":847,"o":"m 379 231 b 428 453 395 314 410 416 b 562 537 476 484 510 496 b 725 795 630 589 725 673 b 385 994 725 899 627 994 b 189 964 319 994 257 985 b 182 1116 185 1006 183 1063 l 150 1127 b 126 706 150 1013 142 839 l 157 716 b 187 846 167 776 176 819 b 376 946 212 885 274 946 b 556 751 503 946 556 831 b 447 527 556 688 549 606 b 289 437 382 477 351 464 b 322 217 299 363 315 291 l 379 231 m 440 -3 l 432 133 l 281 110 l 283 -22 l 440 -3 "},"H":{"x_min":65.328125,"x_max":1253.578125,"ha":1346,"o":"m 221 447 b 215 42 221 341 220 107 b 73 23 189 37 104 24 l 65 -6 b 304 0 106 -3 234 0 b 526 -6 363 0 498 -3 l 519 23 b 387 42 492 24 424 34 b 377 413 382 94 377 271 l 377 462 b 941 494 396 466 877 492 l 941 413 b 933 42 941 266 941 89 b 798 23 909 37 819 24 l 792 -6 b 1024 0 838 -3 966 0 b 1253 -6 1088 0 1227 -3 l 1246 23 b 1109 42 1219 24 1136 37 b 1097 480 1099 89 1097 319 l 1097 577 b 1106 929 1097 615 1099 901 b 1245 948 1146 934 1218 946 l 1253 978 b 1026 972 1229 975 1114 972 b 792 978 941 972 815 975 l 798 948 b 933 929 838 946 910 934 b 941 608 941 894 941 716 l 941 544 b 377 540 887 534 411 540 l 377 608 b 387 929 377 727 382 891 b 519 948 409 934 481 946 l 526 978 b 304 972 504 975 389 972 b 65 978 217 972 88 975 l 72 948 b 215 929 106 946 190 934 b 221 577 220 883 221 622 l 221 447 "},"c":{"x_min":74.859375,"x_max":1067.109375,"ha":1124,"o":"m 1009 659 b 1039 1089 1011 791 1019 936 l 1008 1082 b 980 958 1004 1065 988 976 b 695 994 941 969 815 994 b 289 879 558 994 431 976 b 74 464 170 797 74 655 b 356 39 74 286 179 128 b 665 -21 466 -16 615 -21 b 1048 61 879 -21 1016 34 l 1067 121 b 744 46 970 62 847 46 b 238 546 457 46 238 275 b 642 946 238 762 394 946 b 970 784 818 946 944 846 b 978 669 974 761 978 696 l 1009 659 "},"&":{"x_min":85.796875,"x_max":1076.6875,"ha":1131,"o":"m 1031 -22 b 824 177 982 16 912 85 b 966 481 912 288 952 389 b 1067 496 986 487 1037 494 l 1076 526 b 910 520 1059 523 952 520 b 735 526 849 520 781 523 l 744 496 b 849 481 779 492 822 487 b 786 213 860 405 824 274 b 491 527 716 287 581 427 b 730 798 627 601 730 702 b 469 994 730 894 643 994 b 177 766 309 994 177 892 b 329 509 177 685 236 596 b 85 226 217 466 85 369 b 417 -22 85 82 231 -22 b 759 103 586 -22 691 41 b 966 -39 827 55 898 -5 l 1031 -22 m 242 277 b 359 477 242 352 285 435 b 718 139 466 366 597 234 b 479 45 673 94 590 45 b 242 277 356 45 242 137 m 600 780 b 456 562 600 713 566 627 b 310 798 381 639 310 726 b 445 945 310 891 364 945 b 600 780 521 945 600 887 "},"˝":{"x_min":395,"x_max":853.8125,"ha":1274,"o":"m 606 1280 b 395 1103 567 1239 407 1111 l 412 1067 b 655 1197 433 1079 625 1185 l 606 1280 m 804 1280 b 591 1103 763 1241 604 1111 l 608 1067 b 853 1197 633 1082 823 1185 l 804 1280 "},"I":{"x_min":65.328125,"x_max":533.5625,"ha":611,"o":"m 377 569 b 383 929 377 740 378 901 b 526 948 432 934 499 946 l 533 978 b 323 972 510 975 393 972 b 65 978 216 972 91 975 l 72 948 b 215 929 98 946 187 934 b 221 576 220 882 221 622 l 221 494 b 215 42 221 358 220 101 b 70 23 186 37 93 24 l 65 -6 b 277 0 106 -3 231 0 b 533 -6 362 0 503 -3 l 526 23 b 383 42 499 25 417 34 b 377 483 378 70 377 302 l 377 569 "},"•":{"x_min":140,"x_max":390,"ha":542,"o":"m 140 573 l 176 361 l 390 430 l 342 637 l 140 573 "},"ˉ":{"x_min":446,"x_max":802.609375,"ha":1274,"o":"m 459 1201 l 446 1111 b 794 1147 469 1126 771 1147 l 802 1201 l 459 1201 "},"G":{"x_min":75.71875,"x_max":1183.671875,"ha":1257,"o":"m 1053 231 b 1058 385 1053 270 1054 361 b 1176 400 1088 392 1164 399 l 1183 430 b 969 425 1167 427 1035 425 b 746 430 922 425 817 427 l 754 400 b 892 385 780 395 865 388 b 897 274 896 360 897 317 l 897 200 b 893 63 897 131 896 84 b 720 27 836 32 756 27 b 237 544 426 27 237 317 b 632 946 237 766 395 946 b 986 811 854 946 950 854 b 1001 683 991 779 998 730 l 1032 666 b 1051 1096 1028 795 1043 1041 l 1020 1089 b 995 960 1016 1060 1001 982 b 690 994 950 976 808 994 b 290 882 552 994 414 968 b 75 462 171 798 75 658 b 346 43 75 288 175 131 b 707 -22 460 -14 618 -22 b 1055 23 799 -22 976 0 b 1053 186 1053 61 1053 135 l 1053 231 "},"(":{"x_min":103.4375,"x_max":420.578125,"ha":486,"o":"m 404 -174 b 230 444 343 -87 230 89 b 420 1089 230 755 356 994 l 357 1080 b 103 359 167 790 103 582 b 345 -184 103 82 289 -134 l 404 -174 "},"`":{"x_min":381,"x_max":704,"ha":1274,"o":"m 381 1179 b 687 1067 410 1182 664 1078 l 704 1111 b 434 1286 690 1114 477 1255 l 381 1179 "},"U":{"x_min":59.890625,"x_max":1114.75,"ha":1190,"o":"m 178 398 b 589 -22 178 155 307 -22 b 873 75 724 -22 811 18 b 1007 459 978 169 1007 303 b 1004 630 1007 509 1004 576 l 1004 697 b 1011 929 1004 734 1007 908 b 1106 948 1046 937 1083 943 l 1114 978 b 948 972 1091 975 1019 972 b 728 978 864 972 762 975 l 737 948 b 886 929 773 946 854 934 b 892 584 891 883 892 629 l 892 457 b 801 97 892 290 875 168 b 605 30 755 53 695 30 b 336 425 458 30 336 130 l 336 609 b 343 929 336 729 338 905 b 484 948 386 937 447 944 l 491 978 b 289 972 457 975 352 972 b 59 978 185 972 98 975 l 63 948 b 171 929 100 943 142 936 b 178 615 175 890 178 740 l 178 398 "},"◊":{"x_min":35,"x_max":756,"ha":808,"o":"m 536 265 b 414 35 494 185 462 129 b 282 277 373 113 319 210 b 146 511 232 367 192 434 b 252 695 191 588 214 623 b 376 920 294 775 328 826 b 507 683 417 841 468 751 b 648 454 557 593 602 530 b 536 265 603 376 575 337 m 437 1039 b 353 1029 418 1032 373 1030 b 345 1011 350 1019 350 1023 b 210 756 305 926 243 816 b 35 483 179 701 90 562 b 205 205 74 423 161 287 b 343 -41 232 154 311 16 b 353 -78 347 -48 356 -72 b 436 -68 369 -75 421 -71 b 444 -50 439 -58 439 -62 b 579 204 483 34 546 144 b 756 477 610 259 700 398 b 584 755 716 537 628 673 b 445 1002 557 806 478 944 b 437 1039 441 1009 434 1033 "},"F":{"x_min":65.328125,"x_max":784,"ha":883,"o":"m 221 455 b 215 43 221 301 219 75 b 70 23 176 31 87 26 l 65 -5 b 292 0 112 -2 215 0 b 543 -5 383 0 495 -2 l 537 23 b 387 43 506 26 439 31 b 377 443 381 81 377 327 l 377 484 b 654 450 454 484 622 475 b 661 331 658 408 661 361 l 690 323 b 711 633 692 427 703 566 l 683 629 b 664 547 677 602 671 568 b 377 527 620 533 443 527 l 377 558 b 387 930 377 662 381 911 b 722 865 455 930 673 912 b 729 755 726 838 729 777 l 760 744 b 784 1086 762 847 773 1022 l 752 1079 b 735 980 748 1048 739 997 b 303 972 706 972 362 972 b 65 977 250 972 112 975 l 70 948 b 215 929 111 944 197 937 b 221 541 219 890 221 666 l 221 455 "},"r":{"x_min":63.96875,"x_max":1042.609375,"ha":1039,"o":"m 220 500 b 213 42 220 355 219 82 b 69 23 175 32 88 24 l 63 -6 b 294 0 95 -3 238 0 b 528 -6 356 0 494 -3 l 522 23 b 379 42 492 25 402 35 b 372 410 375 106 372 320 l 372 446 b 503 455 396 446 451 450 b 982 -44 525 425 887 0 l 1042 -35 b 666 516 901 117 681 481 b 858 778 771 575 858 691 b 741 937 858 855 813 907 b 357 975 649 974 487 975 l 63 974 l 68 945 b 213 928 98 942 190 934 b 220 585 219 902 220 635 l 220 500 m 372 532 b 379 937 372 631 375 880 b 694 739 615 937 694 828 b 539 516 694 602 597 538 b 372 489 480 494 421 489 l 372 532 "},":":{"x_min":136.109375,"x_max":300.8125,"ha":444,"o":"m 300 8 l 294 156 l 136 126 l 140 -22 l 300 8 m 300 416 l 294 565 l 136 534 l 140 386 l 300 416 "},"x":{"x_min":-30,"x_max":980,"ha":985,"o":"m 980 -49 b 549 568 882 80 628 458 b 857 929 592 622 832 921 b 941 948 879 934 916 941 l 944 978 b 803 972 910 975 860 972 b 626 978 729 972 657 975 l 631 948 b 728 929 649 946 705 937 b 519 611 694 858 559 664 b 307 929 487 648 325 893 b 423 948 334 936 371 943 l 431 978 b 215 972 375 975 287 972 b 6 978 92 972 23 975 l 10 948 b 99 929 39 943 74 937 b 421 497 161 862 325 622 b 65 43 376 439 121 78 b -20 23 39 32 6 28 l -30 -5 b 118 0 4 -2 42 0 b 321 -5 195 0 299 -5 l 317 23 b 204 43 292 26 234 36 b 454 453 255 153 417 411 b 922 -63 514 383 733 82 l 980 -49 "},"*":{"x_min":91.6875,"x_max":467.390625,"ha":569,"o":"m 448 745 b 293 831 395 771 317 813 b 467 846 323 837 417 844 l 402 972 b 287 844 370 931 309 866 l 285 846 b 343 1033 290 876 321 956 l 207 1019 b 270 844 229 958 260 876 b 131 960 245 859 182 910 l 91 824 b 265 830 144 828 235 831 b 118 707 241 806 182 757 l 249 642 b 279 820 256 707 271 794 b 348 641 291 792 324 720 l 448 745 "},"†":{"x_min":36.859375,"x_max":609.890625,"ha":660,"o":"m 288 -123 l 348 -123 b 348 80 345 -70 347 22 b 359 654 356 291 356 422 b 597 637 458 654 509 647 l 609 726 l 360 716 b 375 981 360 800 367 862 l 256 972 b 273 716 268 852 272 797 l 47 723 l 36 631 b 275 652 113 641 204 652 b 288 80 279 412 281 290 b 288 -123 290 23 290 -70 "},"V":{"x_min":-42.109375,"x_max":1090,"ha":1038,"o":"m -36 948 b 47 929 6 941 30 934 b 510 -60 114 834 466 16 b 1000 929 528 -16 971 912 b 1083 948 1035 937 1057 943 l 1090 978 b 937 972 1057 975 1001 972 b 738 978 854 972 758 975 l 745 948 b 870 929 789 941 845 934 b 566 197 843 782 597 261 b 254 929 530 241 264 882 b 382 948 277 937 353 946 l 389 978 b 153 972 359 975 238 972 b -42 978 77 972 1 975 l -36 948 "},"h":{"x_min":65.328125,"x_max":1253.578125,"ha":1346,"o":"m 221 447 b 215 42 221 341 220 107 b 73 23 189 37 104 24 l 65 -6 b 304 0 106 -3 234 0 b 526 -6 363 0 498 -3 l 519 23 b 387 42 492 24 424 34 b 377 413 382 94 377 271 l 377 462 b 941 494 396 466 877 492 l 941 413 b 933 42 941 266 941 89 b 798 23 909 37 819 24 l 792 -6 b 1024 0 838 -3 966 0 b 1253 -6 1088 0 1227 -3 l 1246 23 b 1109 42 1219 24 1136 37 b 1097 480 1099 89 1097 319 l 1097 577 b 1106 929 1097 615 1099 901 b 1245 948 1146 934 1218 946 l 1253 978 b 1026 972 1229 975 1114 972 b 792 978 941 972 815 975 l 798 948 b 933 929 838 946 910 934 b 941 608 941 894 941 716 l 941 544 b 377 540 887 534 411 540 l 377 608 b 387 929 377 727 382 891 b 519 948 409 934 481 946 l 526 978 b 304 972 504 975 389 972 b 65 978 217 972 88 975 l 72 948 b 215 929 106 946 190 934 b 221 577 220 883 221 622 l 221 447 "},"0":{"x_min":74.84375,"x_max":845.25,"ha":939,"o":"m 447 -22 b 845 519 669 -22 845 215 b 751 856 845 644 818 765 b 470 994 687 944 598 994 b 74 454 250 994 74 758 b 175 105 74 418 70 240 b 447 -22 258 -1 377 -22 m 691 441 b 476 30 691 263 637 30 b 228 530 285 30 228 337 b 443 941 228 709 283 941 b 691 441 635 941 691 636 "},".":{"x_min":136.109375,"x_max":300.8125,"ha":444,"o":"m 300 9 l 294 158 l 136 127 l 140 -20 l 300 9 "},"”":{"x_min":70.90625,"x_max":407,"ha":486,"o":"m 107 688 b 242 1000 147 788 200 908 l 125 1045 b 70 690 122 931 107 813 l 107 688 m 272 688 b 407 1000 311 788 364 908 l 290 1045 b 235 690 288 931 273 813 l 272 688 "},"@":{"x_min":60.453125,"x_max":1150.703125,"ha":1235,"o":"m 1150 540 b 651 976 1150 794 926 976 b 60 370 312 976 60 714 b 583 -138 60 9 317 -138 b 924 -13 678 -138 809 -94 l 904 20 b 596 -79 803 -44 712 -79 b 162 405 368 -79 162 100 b 662 923 162 714 349 923 b 1070 514 875 923 1070 754 b 882 225 1070 325 983 225 b 848 259 859 225 852 237 b 804 544 836 325 822 437 b 630 693 792 622 741 693 b 513 659 595 693 539 672 b 502 747 509 690 505 718 l 474 748 b 452 495 474 643 464 577 l 481 501 b 512 614 486 522 497 558 b 611 645 530 623 573 645 b 715 509 679 645 704 582 b 724 444 719 484 721 473 b 402 277 561 434 402 407 b 565 148 402 220 441 148 b 753 240 630 148 702 197 b 761 154 757 218 761 169 b 1150 540 991 145 1150 307 m 747 286 b 608 209 706 250 656 209 b 506 283 545 209 506 237 b 732 402 506 358 566 380 b 747 286 738 357 741 332 "},"f":{"x_min":65.328125,"x_max":784,"ha":883,"o":"m 221 455 b 215 43 221 301 219 75 b 70 23 176 31 87 26 l 65 -5 b 292 0 112 -2 215 0 b 543 -5 383 0 495 -2 l 537 23 b 387 43 506 26 439 31 b 377 443 381 81 377 327 l 377 484 b 654 450 454 484 622 475 b 661 331 658 408 661 361 l 690 323 b 711 633 692 427 703 566 l 683 629 b 664 547 677 602 671 568 b 377 527 620 533 443 527 l 377 558 b 387 930 377 662 381 911 b 722 865 455 930 673 912 b 729 755 726 838 729 777 l 760 744 b 784 1086 762 847 773 1022 l 752 1079 b 735 980 748 1048 739 997 b 303 972 706 972 362 972 b 65 977 250 972 112 975 l 70 948 b 215 929 111 944 197 937 b 221 541 219 890 221 666 l 221 455 "},";":{"x_min":136.46875,"x_max":299.578125,"ha":444,"o":"m 136 122 l 139 -22 l 208 -19 b 204 -248 235 -68 231 -143 l 245 -243 b 297 137 299 -105 303 8 l 136 122 m 298 416 l 291 565 l 136 534 l 140 386 l 298 416 "},"“":{"x_min":83.03125,"x_max":394.71875,"ha":486,"o":"m 83 1044 b 100 690 92 919 95 798 l 221 721 b 119 1042 178 813 136 937 l 83 1044 m 255 1044 b 273 690 265 919 268 798 l 394 721 b 292 1042 351 813 308 937 l 255 1044 "},"i":{"x_min":65.328125,"x_max":533.5625,"ha":611,"o":"m 377 569 b 383 929 377 740 378 901 b 526 948 432 934 499 946 l 533 978 b 323 972 510 975 393 972 b 65 978 216 972 91 975 l 72 948 b 215 929 98 946 187 934 b 221 576 220 882 221 622 l 221 494 b 215 42 221 358 220 101 b 70 23 186 37 93 24 l 65 -6 b 277 0 106 -3 231 0 b 533 -6 362 0 503 -3 l 526 23 b 383 42 499 25 417 34 b 377 483 378 70 377 302 l 377 569 "},"6":{"x_min":85.75,"x_max":774.46875,"ha":876,"o":"m 563 1034 b 85 304 284 845 85 573 b 412 -22 85 84 220 -22 b 774 301 643 -22 774 154 b 383 556 774 531 551 581 l 364 525 b 620 244 511 516 620 419 b 446 30 620 104 551 30 b 242 348 344 30 242 129 b 637 1037 242 652 469 901 l 563 1034 "},"A":{"x_min":-75,"x_max":1030,"ha":989,"o":"m 574 -6 b 804 0 610 -3 764 0 b 1030 -6 876 0 1013 -3 l 1025 23 b 906 42 985 28 945 34 b 721 505 843 164 759 398 b 578 930 669 650 594 869 b 681 948 609 938 646 944 l 685 977 b 453 971 646 974 510 971 b 276 977 429 971 316 974 l 277 948 b 384 930 310 944 355 938 b 46 42 365 877 95 130 b -70 23 9 34 -31 27 l -75 -6 b 82 0 -43 -3 47 0 b 288 -6 122 0 246 -3 l 282 23 b 165 42 244 27 199 32 b 261 431 179 149 252 412 b 575 449 311 439 527 449 b 718 42 597 409 693 114 b 580 23 676 32 628 27 l 574 -6 m 565 491 l 280 496 b 424 906 293 542 382 782 l 427 906 b 565 491 450 830 536 582 "},"‘":{"x_min":83.03125,"x_max":231.390625,"ha":319,"o":"m 83 1044 b 100 690 92 919 95 798 l 231 721 b 119 1038 181 805 140 937 l 83 1044 "},"n":{"x_min":54.4375,"x_max":1188.25,"ha":1261,"o":"m 59 942 b 209 925 111 939 178 932 b 171 42 209 879 194 100 b 58 23 140 32 96 28 l 54 -6 b 239 0 93 -3 200 0 b 441 -6 274 0 416 -3 l 436 23 b 288 42 411 25 308 35 b 258 849 270 92 254 821 b 581 453 303 796 562 474 b 1030 -69 612 417 989 -31 b 1053 634 1038 -14 1049 568 b 1079 928 1056 678 1063 874 b 1182 947 1116 933 1165 945 l 1188 977 b 1016 971 1159 974 1046 971 b 813 977 986 971 839 974 l 820 947 b 958 928 858 945 931 933 b 986 214 985 856 986 368 b 691 559 943 252 726 520 b 364 981 668 584 394 933 b 54 971 258 975 130 974 l 59 942 "},"O":{"x_min":74.859375,"x_max":1214.109375,"ha":1315,"o":"m 626 -22 b 1214 537 960 -22 1214 197 b 1049 881 1214 666 1156 801 b 672 994 931 970 816 994 b 74 469 296 994 74 744 b 205 133 74 338 106 237 b 626 -22 332 1 488 -22 m 692 34 b 231 527 427 34 231 279 b 622 941 231 813 435 941 b 1048 436 847 941 1048 730 b 692 34 1048 213 887 34 "},"3":{"x_min":78.71875,"x_max":698.03125,"ha":807,"o":"m 144 753 b 168 846 152 798 160 828 b 318 864 195 856 244 864 l 519 864 b 244 548 444 769 281 587 b 549 266 413 507 549 420 b 322 32 549 141 446 32 b 137 114 266 32 182 45 b 131 234 134 152 130 181 l 100 248 b 78 -71 101 166 92 -1 l 110 -67 b 129 -6 114 -46 118 -24 b 263 -21 178 -22 225 -21 b 576 92 404 -21 512 31 b 698 349 659 173 698 259 b 387 631 698 482 576 580 b 687 973 442 699 605 877 l 379 973 b 172 978 299 973 228 973 b 169 1063 171 1010 169 1037 l 141 1073 b 111 745 134 995 123 823 l 144 753 "},"]":{"x_min":54.4375,"x_max":347.078125,"ha":486,"o":"m 225 500 b 216 -118 225 294 228 -66 l 54 -138 l 63 -175 l 347 -165 b 341 497 340 -101 341 300 l 341 602 b 347 1073 341 661 344 1054 l 54 1083 l 61 1047 l 216 1031 b 225 611 224 995 225 666 l 225 500 "},"m":{"x_min":-1,"x_max":1432,"ha":1472,"o":"m 988 -6 b 1240 0 1027 -3 1177 0 b 1432 -6 1304 0 1385 -3 l 1425 23 b 1312 42 1400 27 1346 34 b 1133 929 1289 130 1159 773 b 1248 948 1162 936 1229 946 l 1252 978 b 1063 972 1221 975 1106 972 b 879 978 1015 972 923 975 l 886 948 b 978 929 910 944 952 939 b 701 242 976 897 740 322 b 453 929 659 348 493 802 b 555 948 479 934 517 944 l 561 978 b 356 972 522 975 415 972 b 160 978 284 972 178 975 l 169 948 b 303 929 184 946 267 934 b 105 41 283 815 135 128 b 8 23 75 32 31 27 l -1 -6 b 150 0 43 -3 113 0 b 352 -6 175 0 333 -3 l 347 23 b 226 42 326 25 250 37 b 336 820 220 221 301 608 l 341 820 b 652 -11 358 768 614 75 b 997 819 693 68 961 734 l 1003 819 b 1140 39 1019 716 1138 91 b 991 23 1113 37 1010 24 l 988 -6 "},"9":{"x_min":77.578125,"x_max":764.953125,"ha":875,"o":"m 343 -55 b 764 672 559 140 764 422 b 445 994 764 893 620 994 b 77 670 198 994 77 808 b 470 429 77 447 295 383 l 490 461 b 227 709 336 451 227 554 b 406 941 227 868 307 941 b 598 633 499 941 598 847 b 268 -58 598 330 383 69 l 343 -55 "},"l":{"x_min":65.328125,"x_max":790.8125,"ha":818,"o":"m 221 509 b 215 43 221 372 220 104 b 70 23 186 33 91 25 l 65 -5 b 296 0 103 -2 228 0 b 694 -8 370 0 664 -5 b 687 -170 694 -45 687 -151 l 718 -177 b 790 279 737 8 763 155 l 758 273 b 709 115 747 234 729 162 b 383 44 657 80 545 44 b 377 523 378 75 377 341 l 377 573 b 383 929 377 684 378 884 b 544 948 438 934 511 946 l 551 978 b 300 972 524 975 392 972 b 65 978 217 972 99 975 l 69 948 b 215 929 104 946 185 934 b 221 590 220 884 221 669 l 221 509 "},"8":{"x_min":74.859375,"x_max":752.703125,"ha":854,"o":"m 393 -22 b 752 270 596 -22 752 100 b 499 552 752 356 706 461 b 717 801 653 618 717 708 b 445 994 717 880 660 994 b 118 758 220 994 118 855 b 311 508 118 672 141 601 b 74 213 221 463 74 375 b 393 -22 74 112 166 -22 m 421 27 b 220 243 314 27 220 108 b 348 481 220 365 281 429 b 605 206 574 381 605 295 b 421 27 605 97 526 27 m 447 577 b 249 798 353 625 249 677 b 412 945 249 879 311 945 b 578 777 481 945 578 906 b 447 577 578 676 517 609 "},"p":{"x_min":65.328125,"x_max":828.921875,"ha":888,"o":"m 374 580 b 381 937 374 700 375 897 b 556 906 441 937 511 929 b 666 718 626 872 666 802 b 453 445 666 508 502 458 l 449 411 b 735 547 498 418 645 455 b 828 768 789 602 828 673 b 695 938 828 802 816 887 b 367 979 628 966 515 979 b 65 977 304 979 106 977 l 69 948 b 215 929 102 945 189 938 b 221 584 220 881 221 629 l 221 529 b 215 43 221 400 220 104 b 70 23 179 36 91 26 l 65 -5 b 300 0 103 -2 232 0 b 560 -5 363 0 515 -2 l 553 23 b 381 43 511 27 413 37 b 374 522 375 83 374 404 l 374 580 "},"4":{"x_min":-18.890625,"x_max":829.078125,"ha":883,"o":"m 487 291 l 487 241 b 480 42 487 177 484 82 b 283 23 443 39 303 25 l 277 -6 b 532 0 314 -3 486 0 b 781 -6 599 0 751 -3 l 774 23 b 627 42 747 25 649 38 b 620 245 623 73 620 166 l 620 291 b 762 284 675 291 724 291 b 771 194 766 270 770 224 l 803 187 b 829 549 799 396 822 494 l 797 546 b 765 403 790 520 778 444 b 620 380 741 389 669 380 l 620 442 b 633 1042 620 637 626 991 b -18 291 468 856 137 463 l 487 291 m 487 380 l 130 380 b 487 796 257 534 415 712 l 487 380 "},"‡":{"x_min":36.859375,"x_max":609.890625,"ha":660,"o":"m 597 376 l 609 465 l 356 455 b 359 654 358 516 358 581 b 597 637 447 654 510 647 l 609 726 l 360 716 b 375 981 360 800 367 862 l 256 972 b 273 716 268 852 272 797 l 47 722 l 36 631 b 275 652 113 641 185 652 b 279 455 276 580 277 515 l 47 462 l 36 370 b 280 391 102 379 192 391 b 287 79 283 286 283 201 b 287 -123 288 20 288 -70 l 348 -123 b 348 79 345 -70 347 20 b 355 393 352 201 354 284 b 597 376 445 393 522 384 "},"R":{"x_min":63.96875,"x_max":1042.609375,"ha":1039,"o":"m 220 500 b 213 42 220 355 219 82 b 69 23 175 32 88 24 l 63 -6 b 294 0 95 -3 238 0 b 528 -6 356 0 494 -3 l 522 23 b 379 42 492 25 402 35 b 372 410 375 106 372 320 l 372 446 b 503 455 396 446 451 450 b 982 -44 525 425 887 0 l 1042 -35 b 666 516 901 117 681 481 b 858 778 771 575 858 691 b 741 937 858 855 813 907 b 357 975 649 974 487 975 l 63 974 l 68 945 b 213 928 98 942 190 934 b 220 585 219 902 220 635 l 220 500 m 372 532 b 379 937 372 631 375 880 b 694 739 615 937 694 828 b 539 516 694 602 597 538 b 372 489 480 494 421 489 l 372 532 "},"o":{"x_min":74.859375,"x_max":1214.109375,"ha":1315,"o":"m 626 -22 b 1214 537 960 -22 1214 197 b 1049 881 1214 666 1156 801 b 672 994 931 970 816 994 b 74 469 296 994 74 744 b 205 133 74 338 106 237 b 626 -22 332 1 488 -22 m 692 34 b 231 527 427 34 231 279 b 622 941 231 813 435 941 b 1048 436 847 941 1048 730 b 692 34 1048 213 887 34 "},"5":{"x_min":54.4375,"x_max":675.109375,"ha":800,"o":"m 639 1071 b 617 996 635 1055 628 1032 b 362 972 598 986 559 972 l 171 972 l 132 585 b 404 487 273 560 351 525 b 524 276 443 460 524 389 b 284 30 524 110 397 30 b 112 111 201 30 145 62 b 107 233 110 133 107 183 l 76 246 b 54 -71 76 167 68 7 l 84 -66 b 102 -8 91 -39 98 -17 b 249 -21 142 -19 197 -21 b 675 361 490 -21 675 164 b 537 582 675 450 616 530 b 191 693 435 648 314 673 l 217 862 l 359 862 b 593 850 494 862 563 857 b 593 733 596 814 593 771 l 624 723 b 671 1075 638 910 653 985 l 639 1071 "}}}
